<svg width="16" height="22" viewBox="0 0 16 22" fill="none" xmlns="http://www.w3.org/2000/svg">
<path fill-rule="evenodd" clip-rule="evenodd" d="M9.16129 21.0239C11.3793 18.313 16 12.2315 16 8.61539C16 3.85724 12.4183 0 8 0C3.58172 0 0 3.85724 0 8.61539C0 12.2315 4.6207 18.313 6.83871 21.0239C7.44654 21.7668 8.55346 21.7668 9.16129 21.0239ZM7.99866 12.7996C10.6496 12.7996 12.7987 10.6506 12.7987 7.99959C12.7987 5.34862 10.6496 3.19959 7.99866 3.19959C5.34769 3.19959 3.19866 5.34862 3.19866 7.99959C3.19866 10.6506 5.34769 12.7996 7.99866 12.7996Z" fill="#FF8A00"/>
</svg>
