<svg width="20" height="20" viewBox="0 0 20 20" fill="none" xmlns="http://www.w3.org/2000/svg">
<path d="M6.14999 0.833252H13.85C16.7833 0.833252 19.1667 3.21659 19.1667 6.14992V13.8499C19.1667 15.26 18.6065 16.6123 17.6094 17.6094C16.6124 18.6064 15.2601 19.1666 13.85 19.1666H6.14999C3.21666 19.1666 0.833328 16.7833 0.833328 13.8499V6.14992C0.833328 4.73985 1.39348 3.38754 2.39054 2.39047C3.38761 1.3934 4.73993 0.833252 6.14999 0.833252ZM5.96666 2.66659C5.09145 2.66659 4.25208 3.01426 3.63321 3.63313C3.01434 4.252 2.66666 5.09137 2.66666 5.96659V14.0333C2.66666 15.8574 4.14249 17.3333 5.96666 17.3333H14.0333C14.9085 17.3333 15.7479 16.9856 16.3668 16.3667C16.9857 15.7478 17.3333 14.9085 17.3333 14.0333V5.96659C17.3333 4.14242 15.8575 2.66659 14.0333 2.66659H5.96666ZM14.8125 4.04159C15.1164 4.04159 15.4078 4.16231 15.6227 4.37719C15.8376 4.59208 15.9583 4.88352 15.9583 5.18742C15.9583 5.49131 15.8376 5.78276 15.6227 5.99764C15.4078 6.21253 15.1164 6.33325 14.8125 6.33325C14.5086 6.33325 14.2172 6.21253 14.0023 5.99764C13.7874 5.78276 13.6667 5.49131 13.6667 5.18742C13.6667 4.88352 13.7874 4.59208 14.0023 4.37719C14.2172 4.16231 14.5086 4.04159 14.8125 4.04159ZM9.99999 5.41658C11.2156 5.41658 12.3814 5.89947 13.2409 6.75901C14.1004 7.61855 14.5833 8.78434 14.5833 9.99992C14.5833 11.2155 14.1004 12.3813 13.2409 13.2408C12.3814 14.1004 11.2156 14.5833 9.99999 14.5833C8.78442 14.5833 7.61863 14.1004 6.75909 13.2408C5.89955 12.3813 5.41666 11.2155 5.41666 9.99992C5.41666 8.78434 5.89955 7.61855 6.75909 6.75901C7.61863 5.89947 8.78442 5.41658 9.99999 5.41658ZM9.99999 7.24992C9.27065 7.24992 8.57118 7.53965 8.05545 8.05537C7.53973 8.5711 7.24999 9.27057 7.24999 9.99992C7.24999 10.7293 7.53973 11.4287 8.05545 11.9445C8.57118 12.4602 9.27065 12.7499 9.99999 12.7499C10.7293 12.7499 11.4288 12.4602 11.9445 11.9445C12.4603 11.4287 12.75 10.7293 12.75 9.99992C12.75 9.27057 12.4603 8.5711 11.9445 8.05537C11.4288 7.53965 10.7293 7.24992 9.99999 7.24992Z" fill="white"/>
</svg>
