<svg width="29" height="29" viewBox="0 0 29 29" fill="none" xmlns="http://www.w3.org/2000/svg">
<path d="M0 14.5C0 10.6544 1.52767 6.96623 4.24695 4.24695C6.96623 1.52767 10.6544 0 14.5 0C18.3456 0 22.0338 1.52767 24.753 4.24695C27.4723 6.96623 29 10.6544 29 14.5C29 18.3456 27.4723 22.0338 24.753 24.753C22.0338 27.4723 18.3456 29 14.5 29C10.6544 29 6.96623 27.4723 4.24695 24.753C1.52767 22.0338 0 18.3456 0 14.5ZM13.5938 1.95206C12.3794 2.32181 11.1741 3.43831 10.1736 5.31425C9.91438 5.8 9.67331 6.32925 9.45762 6.89475C10.7354 7.17931 12.1256 7.36056 13.5938 7.41494V1.95206ZM7.70131 6.41444C7.95869 5.71844 8.25231 5.06594 8.57312 4.46056C8.88652 3.86798 9.24844 3.30236 9.65519 2.7695C8.11215 3.40895 6.71033 4.34637 5.52994 5.52812C6.18606 5.86162 6.91288 6.15887 7.70131 6.41444ZM6.36006 13.5938C6.42531 11.6544 6.70081 9.81106 7.15031 8.14175C6.1692 7.82799 5.21956 7.42325 4.31375 6.93281C2.87018 8.87101 2.01336 11.1829 1.84512 13.5938H6.35825H6.36006ZM8.89756 8.62569C8.47026 10.2493 8.22707 11.9158 8.17256 13.5938H13.5938V9.22744C11.9444 9.17306 10.3621 8.96462 8.89756 8.62569ZM15.4062 9.22563V13.5938H20.8256C20.7717 11.9158 20.5292 10.2493 20.1024 8.62569C18.6379 8.96462 17.0556 9.16944 15.4062 9.22563ZM8.17438 15.4062C8.23781 17.1952 8.49337 18.8754 8.89756 20.3743C10.4401 20.0243 12.0127 19.8233 13.5938 19.7744V15.4062H8.17438ZM15.4062 15.4062V19.7726C17.0556 19.8269 18.6379 20.0354 20.1024 20.3743C20.5066 18.8754 20.7622 17.1952 20.8274 15.4062H15.4062ZM9.45762 22.1052C9.67513 22.6707 9.91438 23.2 10.1736 23.6857C11.1741 25.5617 12.3812 26.6764 13.5938 27.0479V21.5869C12.1256 21.6413 10.7354 21.8207 9.45762 22.1052ZM9.657 26.2305C9.2496 25.6977 8.88707 25.1321 8.57312 24.5394C8.2393 23.9077 7.94805 23.2543 7.70131 22.5837C6.95571 22.8234 6.22975 23.1203 5.52994 23.4719C6.71033 24.6536 8.11396 25.5911 9.657 26.2305ZM7.15031 20.8583C6.67974 19.077 6.414 17.2478 6.35825 15.4062H1.84512C2.01326 17.8171 2.87008 20.129 4.31375 22.0672C5.16563 21.5996 6.11719 21.1936 7.15031 20.8583ZM19.3448 26.2305C20.8871 25.5914 22.2883 24.6546 23.4683 23.4737C22.769 23.1222 22.0437 22.8252 21.2987 22.5856C21.0519 23.2555 20.7606 23.9083 20.4269 24.5394C20.1136 25.1321 19.7516 25.6977 19.3448 26.2305ZM15.4062 21.5851V27.0479C16.6206 26.6782 17.8259 25.5617 18.8264 23.6857C19.0856 23.2 19.3267 22.6707 19.5424 22.1052C18.1823 21.807 16.7979 21.6317 15.4062 21.5851ZM21.8497 20.8583C22.8828 21.1936 23.8344 21.5996 24.6863 22.0672C26.1299 20.129 26.9867 17.8171 27.1549 15.4062H22.6417C22.586 17.2478 22.3203 19.077 21.8497 20.8583ZM27.1549 13.5938C26.9867 11.1829 26.1299 8.87096 24.6863 6.93281C23.8344 7.40044 22.8828 7.80644 21.8497 8.14175C22.2992 9.80925 22.5747 11.6544 22.6417 13.5938H27.1549ZM20.4269 4.46056C20.7477 5.06594 21.0413 5.71844 21.3005 6.41444C22.0449 6.17473 22.7696 5.8778 23.4683 5.52631C22.2881 4.34605 20.8869 3.40989 19.3448 2.77131C19.7399 3.28425 20.1024 3.85337 20.4269 4.46056ZM19.5424 6.89475C19.3365 6.35369 19.0974 5.82586 18.8264 5.31425C17.8259 3.43831 16.6206 2.32363 15.4062 1.95206V7.41313C16.8744 7.35875 18.2646 7.17931 19.5424 6.89475Z" fill="#FF8A00"/>
</svg>
