<svg width="29" height="29" viewBox="0 0 29 29" fill="none" xmlns="http://www.w3.org/2000/svg">
<path d="M4.83336 24.1666C4.16877 24.1666 3.59965 23.9298 3.12598 23.4561C2.65231 22.9824 2.41588 22.4137 2.41669 21.7499V7.24992C2.41669 6.58534 2.65352 6.01621 3.12719 5.54255C3.60086 5.06888 4.16958 4.83245 4.83336 4.83325H24.1667C24.8313 4.83325 25.4004 5.07009 25.8741 5.54375C26.3477 6.01742 26.5842 6.58614 26.5834 7.24992V21.7499C26.5834 22.4145 26.3465 22.9836 25.8729 23.4573C25.3992 23.931 24.8305 24.1674 24.1667 24.1666H4.83336ZM14.5 15.7083L4.83336 9.66659V21.7499H24.1667V9.66659L14.5 15.7083ZM14.5 13.2916L24.1667 7.24992H4.83336L14.5 13.2916ZM4.83336 9.66659V7.24992V21.7499V9.66659Z" fill="#FF8A00"/>
</svg>
