<svg width="29" height="29" viewBox="0 0 29 29" fill="none" xmlns="http://www.w3.org/2000/svg">
<path d="M24.1062 25.375C21.5083 25.375 18.976 24.7958 16.5094 23.6374C14.0428 22.479 11.8577 20.9485 9.95419 19.0458C8.05066 17.143 6.52011 14.958 5.36252 12.4905C4.20494 10.0231 3.62574 7.49086 3.62494 4.89375C3.62494 4.53125 3.74577 4.22917 3.98744 3.9875C4.22911 3.74583 4.53119 3.625 4.89369 3.625H9.78744C10.0694 3.625 10.3211 3.71562 10.5426 3.89687C10.7642 4.07812 10.8951 4.30972 10.9354 4.59167L11.7208 8.82083C11.7611 9.10278 11.7558 9.35975 11.7051 9.59175C11.6543 9.82375 11.5387 10.03 11.3583 10.2104L8.45827 13.1708C9.30411 14.6208 10.3614 15.9802 11.6301 17.249C12.8989 18.5177 14.2986 19.6153 15.8291 20.5417L18.6687 17.7021C18.8499 17.5208 19.0868 17.3851 19.3792 17.2949C19.6716 17.2047 19.9584 17.1793 20.2395 17.2188L24.4083 18.0646C24.6902 18.125 24.9218 18.2611 25.1031 18.473C25.2843 18.6849 25.3749 18.9314 25.3749 19.2125V24.1063C25.3749 24.4688 25.2541 24.7708 25.0124 25.0125C24.7708 25.2542 24.4687 25.375 24.1062 25.375Z" fill="#FF8A00"/>
</svg>
