<svg width="22" height="22" viewBox="0 0 22 22" fill="none" xmlns="http://www.w3.org/2000/svg">
<g opacity="0.6">
<path d="M11 1.83325C5.93999 1.83325 1.83333 5.93992 1.83333 10.9999C1.83333 16.0599 5.93999 20.1666 11 20.1666C16.06 20.1666 20.1667 16.0599 20.1667 10.9999C20.1667 5.93992 16.06 1.83325 11 1.83325ZM15.2533 8.06659C15.1158 9.51492 14.52 13.0349 14.2175 14.6574C14.0892 15.3449 13.8325 15.5741 13.5942 15.6016C13.0625 15.6474 12.6592 15.2533 12.1458 14.9141C11.3392 14.3824 10.8808 14.0524 10.1017 13.5391C9.19416 12.9433 9.78083 12.6133 10.3033 12.0816C10.4408 11.9441 12.7875 9.80825 12.8333 9.61575C12.8397 9.5866 12.8388 9.55633 12.8309 9.52757C12.8229 9.49882 12.808 9.47245 12.7875 9.45075C12.7325 9.40492 12.6592 9.42325 12.595 9.43242C12.5125 9.45075 11.2292 10.3033 8.72666 11.9899C8.35999 12.2374 8.02999 12.3658 7.73666 12.3566C7.40666 12.3474 6.78333 12.1733 6.31583 12.0174C5.73833 11.8341 5.28916 11.7333 5.32583 11.4124C5.34416 11.2474 5.57333 11.0824 6.00416 10.9083C8.68083 9.74408 10.4592 8.97409 11.3483 8.60742C13.8967 7.54409 14.4192 7.36075 14.7675 7.36075C14.8408 7.36075 15.015 7.37908 15.125 7.47075C15.2167 7.54408 15.2442 7.64492 15.2533 7.71825C15.2442 7.77325 15.2625 7.93825 15.2533 8.06659Z" fill="white"/>
</g>
</svg>
