<svg width="20" height="20" viewBox="0 0 20 20" fill="none" xmlns="http://www.w3.org/2000/svg">
<path d="M16.4625 3.50081C15.6221 2.65191 14.6211 1.97884 13.5178 1.52085C12.4146 1.06287 11.2312 0.829145 10.0367 0.833307C5.03167 0.833307 0.952499 4.91247 0.952499 9.91747C0.952499 11.5216 1.37417 13.08 2.1625 14.455L0.879166 19.1666L5.69167 17.9016C7.02083 18.6258 8.515 19.0108 10.0367 19.0108C15.0417 19.0108 19.1208 14.9316 19.1208 9.92664C19.1208 7.49747 18.1767 5.21497 16.4625 3.50081ZM10.0367 17.4708C8.68 17.4708 7.35083 17.1041 6.18667 16.4166L5.91167 16.2516L3.05167 17.0033L3.8125 14.2166L3.62917 13.9325C2.87543 12.7289 2.47521 11.3376 2.47417 9.91747C2.47417 5.75581 5.86583 2.36414 10.0275 2.36414C12.0442 2.36414 13.9417 3.15247 15.3625 4.58247C16.066 5.28277 16.6236 6.11575 17.0028 7.03311C17.382 7.95048 17.5754 8.93399 17.5717 9.92664C17.59 14.0883 14.1983 17.4708 10.0367 17.4708ZM14.18 11.8241C13.9508 11.7141 12.8325 11.1641 12.6308 11.0816C12.42 11.0083 12.2733 10.9716 12.1175 11.1916C11.9617 11.4208 11.5308 11.9341 11.4025 12.0808C11.2742 12.2366 11.1367 12.255 10.9075 12.1358C10.6783 12.0258 9.945 11.7783 9.08333 11.0083C8.405 10.4033 7.95583 9.66081 7.81833 9.43164C7.69 9.20247 7.8 9.08331 7.91917 8.96414C8.02 8.86331 8.14833 8.69831 8.25833 8.56997C8.36833 8.44164 8.41417 8.34081 8.4875 8.19414C8.56083 8.03831 8.52417 7.90997 8.46917 7.79997C8.41417 7.68997 7.95583 6.57164 7.7725 6.11331C7.58917 5.67331 7.39667 5.72831 7.25917 5.71914H6.81917C6.66333 5.71914 6.425 5.77414 6.21417 6.00331C6.0125 6.23247 5.42583 6.78247 5.42583 7.90081C5.42583 9.01914 6.24167 10.1008 6.35167 10.2475C6.46167 10.4033 7.95583 12.695 10.2292 13.6758C10.77 13.9141 11.1917 14.0516 11.5217 14.1525C12.0625 14.3266 12.5575 14.2991 12.9517 14.2441C13.3917 14.18 14.2992 13.6941 14.4825 13.1625C14.675 12.6308 14.675 12.1816 14.6108 12.0808C14.5467 11.98 14.4092 11.9341 14.18 11.8241Z" fill="white"/>
</svg>
